<svg xmlns="http://www.w3.org/2000/svg" width="28.075" height="21.981" viewBox="0 0 28.075 21.981">
    <g data-name="Group 5736">
        <path data-name="Path 245" d="M21.58 5.691 14.717.23a1.1 1.1 0 0 0-1.773.851v1.826a1.026 1.026 0 0 1-.975 1.1H1.064A1.026 1.026 0 0 0 0 5.035v2.873a1.079 1.079 0 0 0 1.064 1.064h10.905a.98.98 0 0 1 .975 1.046v1.826a1.089 1.089 0 0 0 1.755.833l6.844-5.32a1.039 1.039 0 0 0 .037-1.666z" transform="rotate(90 6.454 6.454)" style="fill:#2a72e5"/>
        <g data-name="straight-right-arrow">
            <path data-name="Path 245" d="M21.58 5.691 14.717.23a1.1 1.1 0 0 0-1.773.851v1.826a1.026 1.026 0 0 1-.975 1.1H1.064A1.026 1.026 0 0 0 0 5.035v2.873a1.079 1.079 0 0 0 1.064 1.064h10.905a.98.98 0 0 1 .975 1.046v1.826a1.089 1.089 0 0 0 1.755.833l6.844-5.32a1.039 1.039 0 0 0 .037-1.666z" transform="rotate(-90 18.574 3.407)" style="fill:#2a72e5"/>
        </g>
    </g>
</svg>
