<svg xmlns="http://www.w3.org/2000/svg" width="112" height="44" viewBox="0 0 112 44">
    <g data-name="Group 5725">
        <text transform="translate(54 31)" style="font-size:24px;font-family:Roboto-Medium,Roboto;font-weight:500;letter-spacing:.008em"><tspan x="0" y="0">swap</tspan></text>
        <path d="M0 0h44v44H0z" style="fill:none"/>
        <g data-name="tokamak1">
            <g data-name="그룹 331">
                <path data-name="패스 201" d="M43.665 90.642q-.227.724-.414 1.46a2.2 2.2 0 0 1 1.136-1.435 5.879 5.879 0 0 1 4.662-2.267v-.016c-3.349-.963-4.389.139-4.68.658a11.36 11.36 0 0 0-.7 1.6" transform="translate(-42.984 -72.523)" style="fill:#2a72e5"/>
                <path data-name="패스 202" d="m63.036 66.864-.492.472c.567-.464 1.5-.356 2.94.341a6.257 6.257 0 0 1 1.174-1.5c-.682-.5-1.373-.931-1.811-.727a15.6 15.6 0 0 0-1.809 1.419" transform="translate(-58.885 -53.891)" style="fill:#2a72e5"/>
                <path data-name="패스 203" d="M96.545 49.69c-.5.188-1.193.438-1.7.645a6.2 6.2 0 0 1 .711.911 16.839 16.839 0 0 1 2.375-1.058c-.136-.572-.172-.857 0-.93-.418.126-.978.285-1.388.43" transform="translate(-85.551 -40.587)" style="fill:#2a72e5"/>
                <path data-name="패스 204" d="M135.927 42.558q-1.3.1-2.59.252c-.405.1-.584.246-.785.856a29.3 29.3 0 0 1 3.2-.428 1.746 1.746 0 0 1 1.388-.735l-1.214.054" transform="translate(-116.66 -35.023)" style="fill:#2a72e5"/>
                <path data-name="패스 205" d="M179.766 43.843a73.87 73.87 0 0 0-2.43-.336 3.114 3.114 0 0 0-2.083.495 31.568 31.568 0 0 1 3.33.35 4.165 4.165 0 0 1 2.611-.228c-.429-.085-1-.21-1.43-.28" transform="translate(-151.895 -35.841)" style="fill:#2a72e5"/>
                <path data-name="패스 206" d="M220.833 53.72a53.595 53.595 0 0 0-1.807-.807 5.585 5.585 0 0 0-3.408-.278 20.667 20.667 0 0 1 2.6 1 6.349 6.349 0 0 1 4.255.995c-.49-.283-1.136-.664-1.641-.911" transform="translate(-185.2 -43.252)" style="fill:#2a72e5"/>
                <path data-name="패스 207" d="M253.05 74.563a12.391 12.391 0 0 0-1.494-2.941l-.386-.53a7.391 7.391 0 0 0-5.853-3.155 8.385 8.385 0 0 1 1.493 1.463c3.934.557 6.643 4.015 6.9 8.811a12.265 12.265 0 0 0-.658-3.651" transform="translate(-209.709 -55.99)" style="fill:#2a72e5"/>
                <path data-name="패스 208" d="M254.837 105.586a17.019 17.019 0 0 0 2.132-1.632c.252-.245.588-.567.829-.823 4.907-5.687 2.677-13.893-2.592-15.379a4.016 4.016 0 0 1 .091.786v.141a3.984 3.984 0 0 1-.092.775c5.637 2.545 5.083 12.7-.9 16.459l.529-.327" transform="translate(-217.12 -72.318)" style="fill:#2a72e5"/>
                <path data-name="패스 209" d="M209.509 125.887a63.91 63.91 0 0 0 2.436-.684c7.214-2.711 8.367-13.784 4.315-16.448a8.034 8.034 0 0 1-1.491 1.415c3.426 3.779-.085 14.452-6.515 15.984l1.255-.268" transform="translate(-179.162 -89.628)" style="fill:#2a72e5"/>
                <path data-name="패스 210" d="M159.413 140.4q1.136-.006 2.272-.043c5.994-.62 10.259-11.624 8.775-15.068a20.046 20.046 0 0 1-2.6.925c-.014 4.4-5.94 14.24-10.189 14.127.525.019 1.226.057 1.751.058" transform="translate(-137.402 -103.255)" style="fill:#2a72e5"/>
                <path data-name="패스 211" d="M112.653 147.185c.669.162 1.564.369 2.237.5 2.5.183 8.8-8.3 11.122-12.792a31.317 31.317 0 0 1-3.338.252c-1.815 1.767-6.6 7.3-7.545 8.4-2.425 2.815-3.325 3.349-3.653 3.3l1.178.337" transform="translate(-99.29 -111.177)" style="fill:#2a72e5"/>
                <path data-name="패스 212" d="M74.651 141.9a20.079 20.079 0 0 0 2.272 1.313l.064.032c.135-.717 6.094-7.834 10.694-10.381a29.733 29.733 0 0 1-3.193-.52c-5.5 2.108-11.107 8.552-10.141 9.34l.309.213" transform="translate(-68.52 -109.072)" style="fill:#2a72e5"/>
                <path data-name="패스 213" d="M49.481 127.808c.261.35.612.814.884 1.147-1.238-1.887 3.981-6.771 9.383-7.911a17.435 17.435 0 0 1-2.377-1.126c-4.97.54-9.7 4.063-8.727 6.5.237.427.558 1 .832 1.388" transform="translate(-47.329 -98.83)" style="fill:#2a72e5"/>
                <path data-name="패스 214" d="M41.73 105.217v.239c.021.413.057.963.1 1.373-.134-2.68 3.935-4.41 7.67-4.291A6.51 6.51 0 0 1 48.327 101c-3.155-.405-4.885.409-5.777 1.162a6.527 6.527 0 0 0-.819 3.056" transform="translate(-41.729 -83.148)" style="fill:#2a72e5"/>
            </g>
        </g>
    </g>
</svg>
